<svg xmlns="http://www.w3.org/2000/svg" viewBox="808 432 9760 7320" width="9760" height="7320">
  <style>
    .name { font: 600 27px sans-serif; fill: #f4ecd8; paint-order: stroke; stroke: #16324f; stroke-width: 6px; }
    .terrain { font: 19.5px sans-serif; fill: #b9c3cf; paint-order: stroke; stroke: #16324f; stroke-width: 5px; }
    .area { font: 600 21px sans-serif; fill: #f4ecd8; paint-order: stroke; stroke: #16324f; stroke-width: 5px; }
  </style>
  <rect x="808" y="432" width="9760" height="7320" fill="#16324f"/>
  <line x1="6062.4" y1="5328" x2="5678.4" y2="6192" stroke="#1f4468" stroke-width="549.8991351438129" stroke-linecap="round"/>
  <line x1="6062.4" y1="5328" x2="6722.400000000001" y2="5172" stroke="#1f4468" stroke-width="518.0092601909785" stroke-linecap="round"/>
  <line x1="6062.4" y1="5328" x2="6062.4" y2="5976" stroke="#1f4468" stroke-width="444.97320012350764" stroke-linecap="round"/>
  <circle cx="6062.4" cy="5328" r="489.89913514381294" fill="#1f4468"/>
  <circle cx="5678.4" cy="6192" r="274.94956757190647" fill="#1f4468"/>
  <circle cx="6722.400000000001" cy="5172" r="259.00463009548923" fill="#1f4468"/>
  <circle cx="6062.4" cy="5976" r="222.48660006175382" fill="#1f4468"/>
  <rect x="5472" y="6048" width="144" height="144" fill="#3f7fcf" fill-opacity="0.8" stroke="#1a1408" stroke-opacity="0.35" stroke-width="2"/>
  <rect x="5760" y="6192" width="144" height="144" fill="#3f7fcf" fill-opacity="0.8" stroke="#1a1408" stroke-opacity="0.35" stroke-width="2"/>
  <rect x="5616" y="5904" width="144" height="144" fill="#3f7fcf" fill-opacity="0.8" stroke="#1a1408" stroke-opacity="0.35" stroke-width="2"/>
  <rect x="5616" y="6192" width="144" height="144" fill="#2b2233" fill-opacity="0.95" stroke="#f4ecd8" stroke-width="3"/>
  <rect x="5472" y="6192" width="144" height="144" fill="#2b2233" fill-opacity="0.95" stroke="#f4ecd8" stroke-width="3"/>
  <rect x="8928" y="4464" width="144" height="144" fill="#cc4f34" fill-opacity="0.8" stroke="#1a1408" stroke-opacity="0.35" stroke-width="2"/>
  <rect x="8928" y="4176" width="144" height="144" fill="#cc4f34" fill-opacity="0.8" stroke="#1a1408" stroke-opacity="0.35" stroke-width="2"/>
  <rect x="8784" y="4176" width="144" height="144" fill="#cc4f34" fill-opacity="0.8" stroke="#1a1408" stroke-opacity="0.35" stroke-width="2"/>
  <rect x="9072" y="4320" width="144" height="144" fill="#cc4f34" fill-opacity="0.8" stroke="#1a1408" stroke-opacity="0.35" stroke-width="2"/>
  <rect x="9072" y="4464" width="144" height="144" fill="#cc4f34" fill-opacity="0.8" stroke="#1a1408" stroke-opacity="0.35" stroke-width="2"/>
  <rect x="8640" y="4320" width="144" height="144" fill="#cc4f34" fill-opacity="0.8" stroke="#1a1408" stroke-opacity="0.35" stroke-width="2"/>
  <rect x="8640" y="4464" width="144" height="144" fill="#cc4f34" fill-opacity="0.8" stroke="#1a1408" stroke-opacity="0.35" stroke-width="2"/>
  <rect x="9072" y="4176" width="144" height="144" fill="#cc4f34" fill-opacity="0.8" stroke="#1a1408" stroke-opacity="0.35" stroke-width="2"/>
  <rect x="8928" y="4608" width="144" height="144" fill="#cc4f34" fill-opacity="0.8" stroke="#1a1408" stroke-opacity="0.35" stroke-width="2"/>
  <rect x="8784" y="4608" width="144" height="144" fill="#cc4f34" fill-opacity="0.8" stroke="#1a1408" stroke-opacity="0.35" stroke-width="2"/>
  <rect x="8640" y="4176" width="144" height="144" fill="#cc4f34" fill-opacity="0.8" stroke="#1a1408" stroke-opacity="0.35" stroke-width="2"/>
  <rect x="8928" y="4032" width="144" height="144" fill="#cc4f34" fill-opacity="0.8" stroke="#1a1408" stroke-opacity="0.35" stroke-width="2"/>
  <rect x="9072" y="4608" width="144" height="144" fill="#cc4f34" fill-opacity="0.8" stroke="#1a1408" stroke-opacity="0.35" stroke-width="2"/>
  <rect x="8784" y="4032" width="144" height="144" fill="#cc4f34" fill-opacity="0.8" stroke="#1a1408" stroke-opacity="0.35" stroke-width="2"/>
  <rect x="9216" y="4320" width="144" height="144" fill="#cc4f34" fill-opacity="0.8" stroke="#1a1408" stroke-opacity="0.35" stroke-width="2"/>
  <rect x="8640" y="4608" width="144" height="144" fill="#cc4f34" fill-opacity="0.8" stroke="#1a1408" stroke-opacity="0.35" stroke-width="2"/>
  <rect x="9216" y="4464" width="144" height="144" fill="#cc4f34" fill-opacity="0.8" stroke="#1a1408" stroke-opacity="0.35" stroke-width="2"/>
  <rect x="8928" y="4320" width="144" height="144" fill="#2b2233" fill-opacity="0.95" stroke="#f4ecd8" stroke-width="3"/><path d="M9072 4320L9072 4464L8928 4464Z" fill="#cc4f34" fill-opacity="0.95"/>
  <rect x="5760" y="5184" width="144" height="144" fill="#9a958b" fill-opacity="0.95" stroke="#f4ecd8" stroke-width="3"/>
  <rect x="5760" y="5328" width="144" height="144" fill="#9a958b" fill-opacity="0.95" stroke="#f4ecd8" stroke-width="3"/>
  <rect x="5904" y="5040" width="144" height="144" fill="#9a958b" fill-opacity="0.95" stroke="#f4ecd8" stroke-width="3"/>
  <rect x="3600" y="6768" width="144" height="144" fill="#3f9447" fill-opacity="0.8" stroke="#1a1408" stroke-opacity="0.35" stroke-width="2"/>
  <rect x="3744" y="6768" width="144" height="144" fill="#3f9447" fill-opacity="0.8" stroke="#1a1408" stroke-opacity="0.35" stroke-width="2"/>
  <rect x="3600" y="6912" width="144" height="144" fill="#3f9447" fill-opacity="0.8" stroke="#1a1408" stroke-opacity="0.35" stroke-width="2"/>
  <rect x="3744" y="6912" width="144" height="144" fill="#3f9447" fill-opacity="0.8" stroke="#1a1408" stroke-opacity="0.35" stroke-width="2"/>
  <rect x="3600" y="6624" width="144" height="144" fill="#3f9447" fill-opacity="0.8" stroke="#1a1408" stroke-opacity="0.35" stroke-width="2"/>
  <rect x="3744" y="6624" width="144" height="144" fill="#3f9447" fill-opacity="0.8" stroke="#1a1408" stroke-opacity="0.35" stroke-width="2"/>
  <rect x="3456" y="6768" width="144" height="144" fill="#3f9447" fill-opacity="0.8" stroke="#1a1408" stroke-opacity="0.35" stroke-width="2"/>
  <rect x="3888" y="6768" width="144" height="144" fill="#3f9447" fill-opacity="0.8" stroke="#1a1408" stroke-opacity="0.35" stroke-width="2"/>
  <rect x="3456" y="6624" width="144" height="144" fill="#3f9447" fill-opacity="0.8" stroke="#1a1408" stroke-opacity="0.35" stroke-width="2"/>
  <rect x="3888" y="6912" width="144" height="144" fill="#3f9447" fill-opacity="0.8" stroke="#1a1408" stroke-opacity="0.35" stroke-width="2"/>
  <rect x="3888" y="6624" width="144" height="144" fill="#3f9447" fill-opacity="0.8" stroke="#1a1408" stroke-opacity="0.35" stroke-width="2"/>
  <rect x="3600" y="7056" width="144" height="144" fill="#3f9447" fill-opacity="0.8" stroke="#1a1408" stroke-opacity="0.35" stroke-width="2"/>
  <rect x="3744" y="7056" width="144" height="144" fill="#3f9447" fill-opacity="0.8" stroke="#1a1408" stroke-opacity="0.35" stroke-width="2"/>
  <rect x="3600" y="6480" width="144" height="144" fill="#3f9447" fill-opacity="0.8" stroke="#1a1408" stroke-opacity="0.35" stroke-width="2"/>
  <rect x="3744" y="6480" width="144" height="144" fill="#3f9447" fill-opacity="0.8" stroke="#1a1408" stroke-opacity="0.35" stroke-width="2"/>
  <rect x="3456" y="7056" width="144" height="144" fill="#3f9447" fill-opacity="0.8" stroke="#1a1408" stroke-opacity="0.35" stroke-width="2"/>
  <rect x="3312" y="6768" width="144" height="144" fill="#3f9447" fill-opacity="0.8" stroke="#1a1408" stroke-opacity="0.35" stroke-width="2"/>
  <rect x="3456" y="6480" width="144" height="144" fill="#3f9447" fill-opacity="0.8" stroke="#1a1408" stroke-opacity="0.35" stroke-width="2"/>
  <rect x="3888" y="7056" width="144" height="144" fill="#3f9447" fill-opacity="0.8" stroke="#1a1408" stroke-opacity="0.35" stroke-width="2"/>
  <rect x="3312" y="6912" width="144" height="144" fill="#3f9447" fill-opacity="0.8" stroke="#1a1408" stroke-opacity="0.35" stroke-width="2"/>
  <rect x="6768" y="5040" width="144" height="144" fill="#cc4f34" fill-opacity="0.8" stroke="#1a1408" stroke-opacity="0.35" stroke-width="2"/>
  <rect x="6480" y="5040" width="144" height="144" fill="#cc4f34" fill-opacity="0.8" stroke="#1a1408" stroke-opacity="0.35" stroke-width="2"/>
  <rect x="6480" y="5184" width="144" height="144" fill="#cc4f34" fill-opacity="0.8" stroke="#1a1408" stroke-opacity="0.35" stroke-width="2"/>
  <rect x="5328" y="2304" width="144" height="144" fill="#efe4c2" fill-opacity="0.95" stroke="#f4ecd8" stroke-width="3"/>
  <rect x="5472" y="2304" width="144" height="144" fill="#efe4c2" fill-opacity="0.95" stroke="#f4ecd8" stroke-width="3"/>
  <rect x="5328" y="2160" width="144" height="144" fill="#efe4c2" fill-opacity="0.95" stroke="#f4ecd8" stroke-width="3"/>
  <rect x="3024" y="7200" width="144" height="144" fill="#2b2233" fill-opacity="0.95" stroke="#f4ecd8" stroke-width="3"/>
  <rect x="3024" y="7344" width="144" height="144" fill="#2b2233" fill-opacity="0.95" stroke="#f4ecd8" stroke-width="3"/>
  <rect x="6336" y="5184" width="144" height="144" fill="#3f9447" fill-opacity="0.95" stroke="#f4ecd8" stroke-width="3"/><path d="M6480 5184L6480 5328L6336 5328Z" fill="#efe4c2" fill-opacity="0.95"/>
  <rect x="2880" y="7200" width="144" height="144" fill="#2b2233" fill-opacity="0.8" stroke="#1a1408" stroke-opacity="0.35" stroke-width="2"/>
  <rect x="3168" y="6768" width="144" height="144" fill="#2b2233" fill-opacity="0.8" stroke="#1a1408" stroke-opacity="0.35" stroke-width="2"/>
  <rect x="2880" y="6912" width="144" height="144" fill="#2b2233" fill-opacity="0.8" stroke="#1a1408" stroke-opacity="0.35" stroke-width="2"/>
  <rect x="3024" y="6768" width="144" height="144" fill="#2b2233" fill-opacity="0.8" stroke="#1a1408" stroke-opacity="0.35" stroke-width="2"/>
  <rect x="3168" y="7488" width="144" height="144" fill="#2b2233" fill-opacity="0.8" stroke="#1a1408" stroke-opacity="0.35" stroke-width="2"/>
  <rect x="2880" y="7344" width="144" height="144" fill="#2b2233" fill-opacity="0.8" stroke="#1a1408" stroke-opacity="0.35" stroke-width="2"/>
  <rect x="3312" y="7488" width="144" height="144" fill="#2b2233" fill-opacity="0.8" stroke="#1a1408" stroke-opacity="0.35" stroke-width="2"/>
  <rect x="3024" y="7488" width="144" height="144" fill="#2b2233" fill-opacity="0.8" stroke="#1a1408" stroke-opacity="0.35" stroke-width="2"/>
  <rect x="3600" y="7200" width="144" height="144" fill="#2b2233" fill-opacity="0.8" stroke="#1a1408" stroke-opacity="0.35" stroke-width="2"/>
  <rect x="2736" y="7056" width="144" height="144" fill="#2b2233" fill-opacity="0.8" stroke="#1a1408" stroke-opacity="0.35" stroke-width="2"/>
  <rect x="2880" y="6768" width="144" height="144" fill="#2b2233" fill-opacity="0.8" stroke="#1a1408" stroke-opacity="0.35" stroke-width="2"/>
  <rect x="2736" y="7200" width="144" height="144" fill="#2b2233" fill-opacity="0.8" stroke="#1a1408" stroke-opacity="0.35" stroke-width="2"/>
  <rect x="3168" y="7200" width="144" height="144" fill="#2b2233" fill-opacity="0.95" stroke="#f4ecd8" stroke-width="3"/>
  <rect x="3312" y="7200" width="144" height="144" fill="#2b2233" fill-opacity="0.95" stroke="#f4ecd8" stroke-width="3"/>
  <rect x="3168" y="7056" width="144" height="144" fill="#2b2233" fill-opacity="0.95" stroke="#f4ecd8" stroke-width="3"/>
  <rect x="3312" y="7056" width="144" height="144" fill="#2b2233" fill-opacity="0.95" stroke="#f4ecd8" stroke-width="3"/>
  <rect x="3168" y="7344" width="144" height="144" fill="#2b2233" fill-opacity="0.95" stroke="#f4ecd8" stroke-width="3"/>
  <rect x="5904" y="5904" width="144" height="144" fill="#3f7fcf" fill-opacity="0.8" stroke="#1a1408" stroke-opacity="0.35" stroke-width="2"/>
  <rect x="6048" y="5760" width="144" height="144" fill="#3f7fcf" fill-opacity="0.8" stroke="#1a1408" stroke-opacity="0.35" stroke-width="2"/>
  <rect x="6048" y="6048" width="144" height="144" fill="#3f7fcf" fill-opacity="0.8" stroke="#1a1408" stroke-opacity="0.35" stroke-width="2"/>
  <rect x="6048" y="5904" width="144" height="144" fill="#3f7fcf" fill-opacity="0.95" stroke="#f4ecd8" stroke-width="3"/><path d="M6192 5904L6192 6048L6048 6048Z" fill="#2b2233" fill-opacity="0.95"/>
  <rect x="5616" y="6048" width="144" height="144" fill="#efe4c2" fill-opacity="0.95" stroke="#f4ecd8" stroke-width="3"/>
  <rect x="5760" y="6048" width="144" height="144" fill="#efe4c2" fill-opacity="0.95" stroke="#f4ecd8" stroke-width="3"/>
  <rect x="2592" y="2880" width="144" height="144" fill="#cc4f34" fill-opacity="0.95" stroke="#f4ecd8" stroke-width="3"/><path d="M2736 2880L2736 3024L2592 3024Z" fill="#3f9447" fill-opacity="0.95"/>
  <rect x="2592" y="3024" width="144" height="144" fill="#cc4f34" fill-opacity="0.95" stroke="#f4ecd8" stroke-width="3"/>
  <rect x="2448" y="3024" width="144" height="144" fill="#cc4f34" fill-opacity="0.95" stroke="#f4ecd8" stroke-width="3"/>
  <rect x="5472" y="2160" width="144" height="144" fill="#3f7fcf" fill-opacity="0.95" stroke="#f4ecd8" stroke-width="3"/>
  <rect x="5904" y="5328" width="144" height="144" fill="#efe4c2" fill-opacity="0.95" stroke="#f4ecd8" stroke-width="3"/>
  <rect x="6048" y="5328" width="144" height="144" fill="#efe4c2" fill-opacity="0.95" stroke="#f4ecd8" stroke-width="3"/>
  <rect x="5904" y="5184" width="144" height="144" fill="#efe4c2" fill-opacity="0.95" stroke="#f4ecd8" stroke-width="3"/>
  <rect x="6048" y="5184" width="144" height="144" fill="#efe4c2" fill-opacity="0.95" stroke="#f4ecd8" stroke-width="3"/>
  <rect x="3024" y="6912" width="144" height="144" fill="#2b2233" fill-opacity="0.95" stroke="#f4ecd8" stroke-width="3"/>
  <rect x="2880" y="7056" width="144" height="144" fill="#2b2233" fill-opacity="0.95" stroke="#f4ecd8" stroke-width="3"/>
  <rect x="3168" y="6912" width="144" height="144" fill="#9a958b" fill-opacity="0.95" stroke="#f4ecd8" stroke-width="3"/>
  <rect x="3456" y="7200" width="144" height="144" fill="#9a958b" fill-opacity="0.95" stroke="#f4ecd8" stroke-width="3"/>
  <rect x="3024" y="7056" width="144" height="144" fill="#9a958b" fill-opacity="0.95" stroke="#f4ecd8" stroke-width="3"/>
  <rect x="2304" y="2736" width="144" height="144" fill="#9a958b" fill-opacity="0.95" stroke="#f4ecd8" stroke-width="3"/>
  <rect x="2304" y="2880" width="144" height="144" fill="#9a958b" fill-opacity="0.95" stroke="#f4ecd8" stroke-width="3"/>
  <rect x="2448" y="2736" width="144" height="144" fill="#9a958b" fill-opacity="0.95" stroke="#f4ecd8" stroke-width="3"/>
  <rect x="2448" y="2880" width="144" height="144" fill="#9a958b" fill-opacity="0.95" stroke="#f4ecd8" stroke-width="3"/>
  <rect x="2592" y="2736" width="144" height="144" fill="#3f9447" fill-opacity="0.8" stroke="#1a1408" stroke-opacity="0.35" stroke-width="2"/>
  <rect x="2736" y="2880" width="144" height="144" fill="#3f9447" fill-opacity="0.8" stroke="#1a1408" stroke-opacity="0.35" stroke-width="2"/>
  <rect x="2736" y="2736" width="144" height="144" fill="#3f9447" fill-opacity="0.8" stroke="#1a1408" stroke-opacity="0.35" stroke-width="2"/>
  <rect x="2592" y="2592" width="144" height="144" fill="#3f9447" fill-opacity="0.8" stroke="#1a1408" stroke-opacity="0.35" stroke-width="2"/>
  <rect x="2304" y="3024" width="144" height="144" fill="#3f9447" fill-opacity="0.8" stroke="#1a1408" stroke-opacity="0.35" stroke-width="2"/>
  <rect x="2736" y="3024" width="144" height="144" fill="#3f9447" fill-opacity="0.8" stroke="#1a1408" stroke-opacity="0.35" stroke-width="2"/>
  <rect x="2448" y="3168" width="144" height="144" fill="#3f9447" fill-opacity="0.8" stroke="#1a1408" stroke-opacity="0.35" stroke-width="2"/>
  <rect x="2736" y="2592" width="144" height="144" fill="#3f9447" fill-opacity="0.8" stroke="#1a1408" stroke-opacity="0.35" stroke-width="2"/>
  <rect x="2592" y="3168" width="144" height="144" fill="#3f9447" fill-opacity="0.8" stroke="#1a1408" stroke-opacity="0.35" stroke-width="2"/>
  <rect x="2160" y="2880" width="144" height="144" fill="#3f9447" fill-opacity="0.8" stroke="#1a1408" stroke-opacity="0.35" stroke-width="2"/>
  <rect x="2880" y="2880" width="144" height="144" fill="#3f9447" fill-opacity="0.8" stroke="#1a1408" stroke-opacity="0.35" stroke-width="2"/>
  <rect x="2304" y="3168" width="144" height="144" fill="#3f9447" fill-opacity="0.8" stroke="#1a1408" stroke-opacity="0.35" stroke-width="2"/>
  <rect x="5904" y="5472" width="144" height="144" fill="#efe4c2" fill-opacity="0.8" stroke="#1a1408" stroke-opacity="0.35" stroke-width="2"/>
  <rect x="5760" y="5040" width="144" height="144" fill="#efe4c2" fill-opacity="0.8" stroke="#1a1408" stroke-opacity="0.35" stroke-width="2"/>
  <rect x="6336" y="5328" width="144" height="144" fill="#efe4c2" fill-opacity="0.8" stroke="#1a1408" stroke-opacity="0.35" stroke-width="2"/>
  <rect x="6048" y="4896" width="144" height="144" fill="#efe4c2" fill-opacity="0.8" stroke="#1a1408" stroke-opacity="0.35" stroke-width="2"/>
  <rect x="6048" y="5616" width="144" height="144" fill="#efe4c2" fill-opacity="0.8" stroke="#1a1408" stroke-opacity="0.35" stroke-width="2"/>
  <rect x="5904" y="4896" width="144" height="144" fill="#efe4c2" fill-opacity="0.8" stroke="#1a1408" stroke-opacity="0.35" stroke-width="2"/>
  <rect x="5904" y="5616" width="144" height="144" fill="#efe4c2" fill-opacity="0.8" stroke="#1a1408" stroke-opacity="0.35" stroke-width="2"/>
  <rect x="5616" y="5184" width="144" height="144" fill="#efe4c2" fill-opacity="0.8" stroke="#1a1408" stroke-opacity="0.35" stroke-width="2"/>
  <rect x="6336" y="5040" width="144" height="144" fill="#efe4c2" fill-opacity="0.8" stroke="#1a1408" stroke-opacity="0.35" stroke-width="2"/>
  <rect x="6336" y="5472" width="144" height="144" fill="#efe4c2" fill-opacity="0.8" stroke="#1a1408" stroke-opacity="0.35" stroke-width="2"/>
  <rect x="6192" y="4896" width="144" height="144" fill="#efe4c2" fill-opacity="0.8" stroke="#1a1408" stroke-opacity="0.35" stroke-width="2"/>
  <rect x="6192" y="5616" width="144" height="144" fill="#efe4c2" fill-opacity="0.8" stroke="#1a1408" stroke-opacity="0.35" stroke-width="2"/>
  <rect x="5184" y="2304" width="144" height="144" fill="#3f9447" fill-opacity="0.95" stroke="#f4ecd8" stroke-width="3"/>
  <rect x="5040" y="2304" width="144" height="144" fill="#3f9447" fill-opacity="0.95" stroke="#f4ecd8" stroke-width="3"/>
  <rect x="5184" y="2448" width="144" height="144" fill="#3f9447" fill-opacity="0.95" stroke="#f4ecd8" stroke-width="3"/>
  <rect x="5040" y="2448" width="144" height="144" fill="#3f9447" fill-opacity="0.95" stroke="#f4ecd8" stroke-width="3"/>
  <rect x="5184" y="2160" width="144" height="144" fill="#3f9447" fill-opacity="0.95" stroke="#f4ecd8" stroke-width="3"/>
  <rect x="3312" y="7344" width="144" height="144" fill="#2b2233" fill-opacity="0.95" stroke="#f4ecd8" stroke-width="3"/>
  <rect x="3456" y="7344" width="144" height="144" fill="#2b2233" fill-opacity="0.95" stroke="#f4ecd8" stroke-width="3"/>
  <rect x="8784" y="4464" width="144" height="144" fill="#9a958b" fill-opacity="0.95" stroke="#f4ecd8" stroke-width="3"/>
  <rect x="8784" y="4320" width="144" height="144" fill="#9a958b" fill-opacity="0.95" stroke="#f4ecd8" stroke-width="3"/>
  <rect x="5184" y="2592" width="144" height="144" fill="#3f7fcf" fill-opacity="0.95" stroke="#f4ecd8" stroke-width="3"/>
  <rect x="5328" y="2592" width="144" height="144" fill="#3f7fcf" fill-opacity="0.95" stroke="#f4ecd8" stroke-width="3"/>
  <rect x="8784" y="864" width="144" height="144" fill="#efe4c2" fill-opacity="0.8" stroke="#1a1408" stroke-opacity="0.35" stroke-width="2"/>
  <rect x="8640" y="1008" width="144" height="144" fill="#efe4c2" fill-opacity="0.8" stroke="#1a1408" stroke-opacity="0.35" stroke-width="2"/>
  <rect x="8784" y="1008" width="144" height="144" fill="#efe4c2" fill-opacity="0.8" stroke="#1a1408" stroke-opacity="0.35" stroke-width="2"/>
  <rect x="8640" y="720" width="144" height="144" fill="#efe4c2" fill-opacity="0.8" stroke="#1a1408" stroke-opacity="0.35" stroke-width="2"/>
  <rect x="8784" y="720" width="144" height="144" fill="#efe4c2" fill-opacity="0.8" stroke="#1a1408" stroke-opacity="0.35" stroke-width="2"/>
  <rect x="8496" y="864" width="144" height="144" fill="#efe4c2" fill-opacity="0.8" stroke="#1a1408" stroke-opacity="0.35" stroke-width="2"/>
  <rect x="8928" y="864" width="144" height="144" fill="#efe4c2" fill-opacity="0.8" stroke="#1a1408" stroke-opacity="0.35" stroke-width="2"/>
  <rect x="8496" y="1008" width="144" height="144" fill="#efe4c2" fill-opacity="0.8" stroke="#1a1408" stroke-opacity="0.35" stroke-width="2"/>
  <rect x="8928" y="1008" width="144" height="144" fill="#efe4c2" fill-opacity="0.8" stroke="#1a1408" stroke-opacity="0.35" stroke-width="2"/>
  <rect x="8496" y="720" width="144" height="144" fill="#efe4c2" fill-opacity="0.8" stroke="#1a1408" stroke-opacity="0.35" stroke-width="2"/>
  <rect x="8928" y="720" width="144" height="144" fill="#efe4c2" fill-opacity="0.8" stroke="#1a1408" stroke-opacity="0.35" stroke-width="2"/>
  <rect x="8640" y="1152" width="144" height="144" fill="#efe4c2" fill-opacity="0.8" stroke="#1a1408" stroke-opacity="0.35" stroke-width="2"/>
  <rect x="8784" y="1152" width="144" height="144" fill="#efe4c2" fill-opacity="0.8" stroke="#1a1408" stroke-opacity="0.35" stroke-width="2"/>
  <rect x="8640" y="576" width="144" height="144" fill="#efe4c2" fill-opacity="0.8" stroke="#1a1408" stroke-opacity="0.35" stroke-width="2"/>
  <rect x="8784" y="576" width="144" height="144" fill="#efe4c2" fill-opacity="0.8" stroke="#1a1408" stroke-opacity="0.35" stroke-width="2"/>
  <rect x="8496" y="1152" width="144" height="144" fill="#efe4c2" fill-opacity="0.8" stroke="#1a1408" stroke-opacity="0.35" stroke-width="2"/>
  <rect x="8928" y="1152" width="144" height="144" fill="#efe4c2" fill-opacity="0.8" stroke="#1a1408" stroke-opacity="0.35" stroke-width="2"/>
  <rect x="8352" y="864" width="144" height="144" fill="#efe4c2" fill-opacity="0.8" stroke="#1a1408" stroke-opacity="0.35" stroke-width="2"/>
  <rect x="9072" y="864" width="144" height="144" fill="#efe4c2" fill-opacity="0.8" stroke="#1a1408" stroke-opacity="0.35" stroke-width="2"/>
  <rect x="8640" y="864" width="144" height="144" fill="#efe4c2" fill-opacity="0.95" stroke="#f4ecd8" stroke-width="3"/><path d="M8784 864L8784 1008L8640 1008Z" fill="#3f7fcf" fill-opacity="0.95"/>
  <rect x="5760" y="5472" width="144" height="144" fill="#3f7fcf" fill-opacity="0.95" stroke="#f4ecd8" stroke-width="3"/>
  <rect x="5616" y="5328" width="144" height="144" fill="#3f7fcf" fill-opacity="0.95" stroke="#f4ecd8" stroke-width="3"/>
  <rect x="5472" y="5616" width="144" height="144" fill="#1d3b66" fill-opacity="0.8" stroke="#1a1408" stroke-opacity="0.35" stroke-width="2"/>
  <rect x="5328" y="5616" width="144" height="144" fill="#1d3b66" fill-opacity="0.8" stroke="#1a1408" stroke-opacity="0.35" stroke-width="2"/>
  <rect x="5472" y="2448" width="144" height="144" fill="#3f7fcf" fill-opacity="0.95" stroke="#f4ecd8" stroke-width="3"/>
  <rect x="5328" y="2448" width="144" height="144" fill="#3f7fcf" fill-opacity="0.95" stroke="#f4ecd8" stroke-width="3"/>
  <rect x="2016" y="2160" width="144" height="144" fill="#1d3b66" fill-opacity="0.8" stroke="#1a1408" stroke-opacity="0.35" stroke-width="2"/>
  <rect x="2016" y="2304" width="144" height="144" fill="#1d3b66" fill-opacity="0.8" stroke="#1a1408" stroke-opacity="0.35" stroke-width="2"/>
  <rect x="5040" y="2160" width="144" height="144" fill="#3f7fcf" fill-opacity="0.8" stroke="#1a1408" stroke-opacity="0.35" stroke-width="2"/>
  <rect x="5040" y="2592" width="144" height="144" fill="#3f7fcf" fill-opacity="0.8" stroke="#1a1408" stroke-opacity="0.35" stroke-width="2"/>
  <rect x="5472" y="2592" width="144" height="144" fill="#3f7fcf" fill-opacity="0.8" stroke="#1a1408" stroke-opacity="0.35" stroke-width="2"/>
  <rect x="4896" y="2304" width="144" height="144" fill="#3f7fcf" fill-opacity="0.8" stroke="#1a1408" stroke-opacity="0.35" stroke-width="2"/>
  <rect x="4896" y="2448" width="144" height="144" fill="#3f7fcf" fill-opacity="0.8" stroke="#1a1408" stroke-opacity="0.35" stroke-width="2"/>
  <rect x="5184" y="2016" width="144" height="144" fill="#3f7fcf" fill-opacity="0.8" stroke="#1a1408" stroke-opacity="0.35" stroke-width="2"/>
  <rect x="5328" y="2016" width="144" height="144" fill="#3f7fcf" fill-opacity="0.8" stroke="#1a1408" stroke-opacity="0.35" stroke-width="2"/>
  <rect x="5184" y="2736" width="144" height="144" fill="#3f7fcf" fill-opacity="0.8" stroke="#1a1408" stroke-opacity="0.35" stroke-width="2"/>
  <rect x="5328" y="2736" width="144" height="144" fill="#3f7fcf" fill-opacity="0.8" stroke="#1a1408" stroke-opacity="0.35" stroke-width="2"/>
  <rect x="5616" y="2304" width="144" height="144" fill="#3f7fcf" fill-opacity="0.8" stroke="#1a1408" stroke-opacity="0.35" stroke-width="2"/>
  <rect x="5616" y="2448" width="144" height="144" fill="#3f7fcf" fill-opacity="0.8" stroke="#1a1408" stroke-opacity="0.35" stroke-width="2"/>
  <rect x="4896" y="2160" width="144" height="144" fill="#3f7fcf" fill-opacity="0.8" stroke="#1a1408" stroke-opacity="0.35" stroke-width="2"/>
  <rect x="6048" y="5472" width="144" height="144" fill="#cc4f34" fill-opacity="0.95" stroke="#f4ecd8" stroke-width="3"/>
  <rect x="6192" y="5472" width="144" height="144" fill="#cc4f34" fill-opacity="0.95" stroke="#f4ecd8" stroke-width="3"/>
  <rect x="2304" y="2592" width="144" height="144" fill="#3f7fcf" fill-opacity="0.95" stroke="#f4ecd8" stroke-width="3"/>
  <rect x="2448" y="2592" width="144" height="144" fill="#3f7fcf" fill-opacity="0.95" stroke="#f4ecd8" stroke-width="3"/>
  <rect x="2160" y="2736" width="144" height="144" fill="#3f7fcf" fill-opacity="0.95" stroke="#f4ecd8" stroke-width="3"/>
  <rect x="6192" y="5184" width="144" height="144" fill="#3f9447" fill-opacity="0.95" stroke="#f4ecd8" stroke-width="3"/>
  <rect x="6192" y="5328" width="144" height="144" fill="#3f9447" fill-opacity="0.95" stroke="#f4ecd8" stroke-width="3"/>
  <rect x="6048" y="5040" width="144" height="144" fill="#3f9447" fill-opacity="0.95" stroke="#f4ecd8" stroke-width="3"/>
  <rect x="6192" y="5040" width="144" height="144" fill="#3f9447" fill-opacity="0.95" stroke="#f4ecd8" stroke-width="3"/>
  <rect x="6624" y="5184" width="144" height="144" fill="#cc4f34" fill-opacity="0.95" stroke="#f4ecd8" stroke-width="3"/>
  <rect x="6624" y="5040" width="144" height="144" fill="#cc4f34" fill-opacity="0.95" stroke="#f4ecd8" stroke-width="3"/>
  <rect x="6768" y="5184" width="144" height="144" fill="#cc4f34" fill-opacity="0.95" stroke="#f4ecd8" stroke-width="3"/>
  <rect x="3456" y="6912" width="144" height="144" fill="#9a958b" fill-opacity="0.8" stroke="#1a1408" stroke-opacity="0.35" stroke-width="2"/>
  <g><circle cx="9041.400000000001" cy="4300.799999999999" r="72" fill="#cc4f34"/><circle cx="9041.400000000001" cy="4300.799999999999" r="72" fill="none" stroke="#f4ecd8" stroke-width="3"/>
    <text x="9041.400000000001" y="4402.799999999999" text-anchor="middle" class="name">고마 파다</text></g>
  <text x="5616" y="6273" text-anchor="middle" class="area">아게딤의 묘실</text>
  <text x="9000" y="4401" text-anchor="middle" class="area">아쿰 피난처</text>
  <text x="5880" y="5265" text-anchor="middle" class="area">메마른 메사</text>
  <text x="5448" y="2337" text-anchor="middle" class="area">에메리아</text>
  <text x="3096" y="7353" text-anchor="middle" class="area">게트 혈족의 영지</text>
  <text x="6408" y="5265" text-anchor="middle" class="area">그레이펠트 피난처</text>
  <text x="3297.6000000000004" y="7252.200000000001" text-anchor="middle" class="area">하그라 늪</text>
  <text x="6120" y="5985" text-anchor="middle" class="area">즈와르 섬 피난처</text>
  <text x="5760" y="6129" text-anchor="middle" class="area">카비라 교차로</text>
  <text x="2664" y="2961" text-anchor="middle" class="area">카잔두 피난처</text>
  <text x="2592" y="3105" text-anchor="middle" class="area">카주울의 절벽</text>
  <text x="5544" y="2241" text-anchor="middle" class="area">마고시, 물의 장막</text>
  <text x="6048" y="5337" text-anchor="middle" class="area">마킨디 협곡</text>
  <text x="3024" y="7065" text-anchor="middle" class="area">말라키르</text>
  <text x="3288" y="7137" text-anchor="middle" class="area">습지 평원</text>
  <text x="2448" y="2889" text-anchor="middle" class="area">안개 낀 우림</text>
  <text x="5198.4" y="2413.8" text-anchor="middle" class="area">오란리프, 광대숲</text>
  <text x="3456" y="7425" text-anchor="middle" class="area">피라냐 습지</text>
  <text x="8856" y="4473" text-anchor="middle" class="area">뜨거운 호수</text>
  <text x="5328" y="2673" text-anchor="middle" class="area">바다 관문</text>
  <text x="8712" y="945" text-anchor="middle" class="area">세지리 피난처</text>
  <text x="5760" y="5481" text-anchor="middle" class="area">실룬디 연안</text>
  <text x="5472" y="2529" text-anchor="middle" class="area">솟아오른 바다절벽</text>
  <text x="6192" y="5553" text-anchor="middle" class="area">흔들리는 봉우리</text>
  <text x="2376" y="2721" text-anchor="middle" class="area">선더만</text>
  <text x="6228" y="5229" text-anchor="middle" class="area">턴팀버 숲</text>
  <text x="6744" y="5217" text-anchor="middle" class="area">발라쿠트, 녹아내리는 봉우리</text>
  <g><text x="5688" y="6375" text-anchor="middle" class="name">아게딤</text>
    <text x="5688" y="6392" text-anchor="middle" class="terrain">해변</text></g>
  <g><text x="9000" y="3999" text-anchor="middle" class="name">아쿰</text>
    <text x="9000" y="4017" text-anchor="middle" class="terrain">화산 지대</text></g>
  <g><text x="3672" y="6447" text-anchor="middle" class="name">발라 게드</text>
    <text x="3672" y="6465" text-anchor="middle" class="terrain">숲</text></g>
  <g><text x="6696" y="5007" text-anchor="middle" class="name">베이엔</text>
    <text x="6696" y="5025" text-anchor="middle" class="terrain">화산 지대</text></g>
  <g><text x="3240" y="6735" text-anchor="middle" class="name">굴 드라즈</text>
    <text x="3240" y="6753" text-anchor="middle" class="terrain">늪</text></g>
  <g><text x="6048" y="6231" text-anchor="middle" class="name">즈와르 섬</text>
    <text x="6048" y="6248" text-anchor="middle" class="terrain">해변</text></g>
  <g><text x="2592" y="2559" text-anchor="middle" class="name">무라사</text>
    <text x="2592" y="2577" text-anchor="middle" class="terrain">숲</text></g>
  <g><text x="6048" y="4863" text-anchor="middle" class="name">온두</text>
    <text x="6048" y="4881" text-anchor="middle" class="terrain">초원</text></g>
  <g><text x="8784" y="543" text-anchor="middle" class="name">세지리</text>
    <text x="8784" y="561" text-anchor="middle" class="terrain">설원</text></g>
  <g><text x="5472" y="5583" text-anchor="middle" class="name">실룬디 바다</text>
    <text x="5472" y="5601" text-anchor="middle" class="terrain">심해</text></g>
  <g><text x="2088" y="2127" text-anchor="middle" class="name">선더만 앞바다</text>
    <text x="2088" y="2145" text-anchor="middle" class="terrain">심해</text></g>
  <g><text x="5328" y="1983" text-anchor="middle" class="name">타짐</text>
    <text x="5328" y="2001" text-anchor="middle" class="terrain">해변</text></g>
  <g><text x="3528" y="6879" text-anchor="middle" class="name">푸른 지하묘지</text>
    <text x="3528" y="6897" text-anchor="middle" class="terrain">폐허</text></g>
</svg>
